<svg xmlns="http://www.w3.org/2000/svg" width="800" height="450" viewBox="0 0 800 450">
  <defs>
    <linearGradient id="bg1" x1="0%" y1="0%" x2="100%" y2="100%">
      <stop offset="0%" style="stop-color:#002B7F;stop-opacity:1" />
      <stop offset="100%" style="stop-color:#0044CC;stop-opacity:1" />
    </linearGradient>
  </defs>
  <rect width="800" height="450" fill="url(#bg1)" rx="12"/>
  <rect x="60" y="60" width="680" height="330" rx="10" fill="#001a4d" opacity="0.7"/>
  <rect x="120" y="100" width="560" height="180" rx="8" fill="#0a0a2e" opacity="0.9"/>
  <rect x="130" y="110" width="540" height="160" rx="6" fill="#111133"/>
  <circle cx="260" cy="190" r="35" fill="#CE1126" opacity="0.9"/>
  <polygon points="248,172 248,208 283,190" fill="#FFFFFF"/>
  <circle cx="400" cy="190" r="35" fill="#FCD116" opacity="0.9"/>
  <polygon points="388,172 388,208 423,190" fill="#002B7F"/>
  <circle cx="540" cy="190" r="35" fill="#002B7F" opacity="0.9"/>
  <polygon points="528,172 528,208 563,190" fill="#FCD116"/>
  <rect x="120" y="295" width="560" height="4" rx="2" fill="#FCD116" opacity="0.6"/>
  <text x="400" y="340" font-family="system-ui,Arial,sans-serif" font-size="34" font-weight="bold" fill="#FFFFFF" text-anchor="middle">Best IPTV 2025</text>
  <text x="400" y="372" font-family="system-ui,Arial,sans-serif" font-size="17" fill="#FCD116" text-anchor="middle">Cele Mai Bune Servicii IPTV pentru Români</text>
  <rect x="280" y="390" width="240" height="36" rx="8" fill="#FCD116"/>
  <text x="400" y="414" font-family="system-ui,Arial,sans-serif" font-size="15" font-weight="bold" fill="#002B7F" text-anchor="middle">romaniaiptv.tv</text>
</svg>