<svg xmlns="http://www.w3.org/2000/svg" viewBox="0 0 800 450" width="800" height="450">
  <defs>
    <linearGradient id="bg" x1="0%" y1="0%" x2="100%" y2="100%">
      <stop offset="0%" style="stop-color:#002B7F;stop-opacity:1"/>
      <stop offset="100%" style="stop-color:#0047cc;stop-opacity:1"/>
    </linearGradient>
  </defs>
  <rect width="800" height="450" fill="url(#bg)"/>
  <!-- Globe/World icon -->
  <circle cx="400" cy="200" r="120" fill="none" stroke="#FCD116" stroke-width="3" opacity="0.4"/>
  <circle cx="400" cy="200" r="80" fill="none" stroke="#FCD116" stroke-width="2" opacity="0.6"/>
  <circle cx="400" cy="200" r="40" fill="#FCD116" opacity="0.9"/>
  <text x="400" y="210" font-family="Arial" font-size="32" fill="#002B7F" text-anchor="middle">📡</text>
  <!-- Connection lines -->
  <line x1="400" y1="200" x2="150" y2="120" stroke="#FCD116" stroke-width="1.5" opacity="0.5" stroke-dasharray="5,5"/>
  <line x1="400" y1="200" x2="650" y2="130" stroke="#FCD116" stroke-width="1.5" opacity="0.5" stroke-dasharray="5,5"/>
  <line x1="400" y1="200" x2="120" y2="320" stroke="#FCD116" stroke-width="1.5" opacity="0.5" stroke-dasharray="5,5"/>
  <line x1="400" y1="200" x2="680" y2="310" stroke="#FCD116" stroke-width="1.5" opacity="0.5" stroke-dasharray="5,5"/>
  <line x1="400" y1="200" x2="300" y2="360" stroke="#FCD116" stroke-width="1.5" opacity="0.5" stroke-dasharray="5,5"/>
  <line x1="400" y1="200" x2="500" y2="370" stroke="#FCD116" stroke-width="1.5" opacity="0.5" stroke-dasharray="5,5"/>
  <!-- Location dots -->
  <circle cx="150" cy="120" r="8" fill="#CE1126"/>
  <text x="170" y="115" font-family="Arial" font-size="11" fill="white">🇩🇪 Germania</text>
  <circle cx="650" cy="130" r="8" fill="#CE1126"/>
  <text x="590" y="120" font-family="Arial" font-size="11" fill="white">🇬🇧 UK</text>
  <circle cx="120" cy="320" r="8" fill="#CE1126"/>
  <text x="140" y="325" font-family="Arial" font-size="11" fill="white">🇫🇷 Franța</text>
  <circle cx="680" cy="310" r="8" fill="#CE1126"/>
  <text x="610" y="305" font-family="Arial" font-size="11" fill="white">🇮🇹 Italia</text>
  <circle cx="300" cy="360" r="8" fill="#CE1126"/>
  <text x="230" y="358" font-family="Arial" font-size="11" fill="white">🇧🇪 Belgia</text>
  <circle cx="500" cy="370" r="8" fill="#CE1126"/>
  <text x="520" y="368" font-family="Arial" font-size="11" fill="white">🇪🇸 Spania</text>
  <!-- Title -->
  <text x="400" y="55" font-family="Arial" font-size="26" fill="white" text-anchor="middle" font-weight="bold">Digital IPTV Romania</text>
  <text x="400" y="85" font-family="Arial" font-size="16" fill="#FCD116" text-anchor="middle">Canale Românești pentru Diaspora</text>
  <!-- Bottom bar -->
  <rect x="0" y="415" width="800" height="35" fill="#001a4d"/>
  <text x="400" y="438" font-family="Arial" font-size="14" fill="#FCD116" text-anchor="middle">romaniaiptv.tv – Streaming HD oriunde în lume</text>
</svg>