<svg xmlns="http://www.w3.org/2000/svg" viewBox="0 0 800 450" width="800" height="450">
  <rect width="800" height="450" fill="#f0f4ff"/>
  <rect x="120" y="60" width="560" height="320" rx="18" fill="#002B7F"/>
  <rect x="145" y="85" width="510" height="265" rx="8" fill="#0a1a3a"/>
  <!-- Screen content -->
  <rect x="155" y="95" width="490" height="245" rx="4" fill="#111"/>
  <!-- TV channels grid -->
  <rect x="165" y="105" width="115" height="70" rx="4" fill="#CE1126"/>
  <text x="222" y="148" font-family="Arial" font-size="14" fill="white" text-anchor="middle">ProTV</text>
  <rect x="290" y="105" width="115" height="70" rx="4" fill="#1a73e8"/>
  <text x="347" y="148" font-family="Arial" font-size="14" fill="white" text-anchor="middle">Antena 1</text>
  <rect x="415" y="105" width="115" height="70" rx="4" fill="#28a745"/>
  <text x="472" y="148" font-family="Arial" font-size="14" fill="white" text-anchor="middle">TVR 1</text>
  <rect x="540" y="105" width="100" height="70" rx="4" fill="#6f42c1"/>
  <text x="590" y="148" font-family="Arial" font-size="14" fill="white" text-anchor="middle">Digi 24</text>
  <!-- Bottom row -->
  <rect x="165" y="185" width="115" height="70" rx="4" fill="#fd7e14"/>
  <text x="222" y="228" font-family="Arial" font-size="13" fill="white" text-anchor="middle">Kanal D</text>
  <rect x="290" y="185" width="115" height="70" rx="4" fill="#20c997"/>
  <text x="347" y="228" font-family="Arial" font-size="13" fill="white" text-anchor="middle">Antena 3</text>
  <rect x="415" y="185" width="115" height="70" rx="4" fill="#e83e8c"/>
  <text x="472" y="228" font-family="Arial" font-size="13" fill="white" text-anchor="middle">Prima TV</text>
  <rect x="540" y="185" width="100" height="70" rx="4" fill="#FCD116"/>
  <text x="590" y="228" font-family="Arial" font-size="13" fill="#002B7F" text-anchor="middle" font-weight="bold">Sport RO</text>
  <!-- Bottom bar -->
  <rect x="155" y="270" width="490" height="60" rx="4" fill="#1a1a2e"/>
  <text x="400" y="307" font-family="Arial" font-size="18" fill="#FCD116" text-anchor="middle" font-weight="bold">🇷🇴 Digital IPTV Romania – 300+ Canale</text>
  <!-- Stand -->
  <rect x="370" y="380" width="60" height="25" rx="4" fill="#002B7F"/>
  <rect x="320" y="400" width="160" height="12" rx="6" fill="#001a4d"/>
  <!-- Title below TV -->
  <text x="400" y="435" font-family="Arial" font-size="16" fill="#002B7F" text-anchor="middle" font-weight="bold">Romania IPTV – Televiziune Digitală HD</text>
</svg>