<svg xmlns="http://www.w3.org/2000/svg" width="800" height="450" viewBox="0 0 800 450">
  <rect width="800" height="450" fill="#002B7F"/>
  <rect x="100" y="60" width="600" height="340" rx="12" fill="#001a5c" stroke="#FCD116" stroke-width="2"/>
  <rect x="120" y="80" width="560" height="200" rx="6" fill="#0a1a3c"/>
  <text x="400" y="165" font-family="Arial, sans-serif" font-size="42" font-weight="bold" fill="#FCD116" text-anchor="middle">FREE IPTV M3U</text>
  <text x="400" y="210" font-family="Arial, sans-serif" font-size="20" fill="#ffffff" text-anchor="middle">Lista Gratuita de Canale Romanesti</text>
  <rect x="140" y="250" width="60" height="10" rx="5" fill="#CE1126"/>
  <rect x="215" y="250" width="100" height="10" rx="5" fill="#FCD116"/>
  <rect x="330" y="250" width="180" height="10" rx="5" fill="#ffffff" opacity="0.4"/>
  <rect x="525" y="250" width="80" height="10" rx="5" fill="#CE1126" opacity="0.7"/>
  <rect x="140" y="275" width="130" height="10" rx="5" fill="#FCD116" opacity="0.8"/>
  <rect x="285" y="275" width="90" height="10" rx="5" fill="#CE1126"/>
  <rect x="390" y="275" width="160" height="10" rx="5" fill="#ffffff" opacity="0.3"/>
  <rect x="140" y="300" width="80" height="10" rx="5" fill="#ffffff" opacity="0.5"/>
  <rect x="235" y="300" width="140" height="10" rx="5" fill="#FCD116" opacity="0.6"/>
  <rect x="390" y="300" width="100" height="10" rx="5" fill="#CE1126" opacity="0.5"/>
  <rect x="160" y="340" width="120" height="36" rx="18" fill="#FCD116"/>
  <text x="220" y="363" font-family="Arial, sans-serif" font-size="14" font-weight="bold" fill="#002B7F" text-anchor="middle">DESCARCA M3U</text>
  <rect x="310" y="340" width="140" height="36" rx="18" fill="#CE1126"/>
  <text x="380" y="363" font-family="Arial, sans-serif" font-size="14" font-weight="bold" fill="#ffffff" text-anchor="middle">ACTIVARE IPTV</text>
  <text x="620" y="363" font-family="Arial, sans-serif" font-size="13" fill="#ffffff" opacity="0.6">romaniaiptv.tv</text>
</svg>