<svg xmlns="http://www.w3.org/2000/svg" viewBox="0 0 800 450" width="800" height="450">
  <rect width="800" height="450" fill="#f0f4ff"/>
  <!-- Header bar -->
  <rect width="800" height="60" fill="#002B7F"/>
  <circle cx="36" cy="30" r="14" fill="#FCD116"/>
  <rect x="60" y="20" width="120" height="10" rx="5" fill="#ffffff" opacity="0.9"/>
  <rect x="60" y="36" width="80" height="8" rx="4" fill="#ffffff" opacity="0.5"/>
  <rect x="600" y="18" width="90" height="24" rx="12" fill="#FCD116"/>
  <text x="645" y="34" font-family="system-ui" font-size="11" font-weight="700" fill="#002B7F" text-anchor="middle">FORUM IPTV</text>
  <!-- Main forum container -->
  <rect x="20" y="80" width="760" height="350" rx="12" fill="#ffffff" stroke="#e0e8ff" stroke-width="2"/>
  <!-- Forum title -->
  <rect x="20" y="80" width="760" height="50" rx="12" fill="#002B7F"/>
  <rect x="20" y="106" width="760" height="24" fill="#002B7F"/>
  <text x="40" y="112" font-family="system-ui" font-size="16" font-weight="700" fill="#FCD116">Forum IPTV Romania</text>
  <text x="680" y="112" font-family="system-ui" font-size="12" fill="#ffffff" opacity="0.8">4,238 membri</text>
  <!-- Thread rows -->
  <!-- Thread 1 -->
  <rect x="30" y="145" width="740" height="52" rx="8" fill="#f8faff" stroke="#e0e8ff" stroke-width="1"/>
  <circle cx="58" cy="171" r="16" fill="#002B7F"/>
  <text x="58" y="176" font-family="system-ui" font-size="12" font-weight="700" fill="#FCD116" text-anchor="middle">IO</text>
  <rect x="85" y="151" width="300" height="11" rx="5" fill="#002B7F" opacity="0.8"/>
  <rect x="85" y="170" width="200" height="9" rx="4" fill="#6b7280" opacity="0.5"/>
  <rect x="660" y="160" width="60" height="22" rx="11" fill="#FCD116"/>
  <text x="690" y="175" font-family="system-ui" font-size="10" font-weight="600" fill="#002B7F" text-anchor="middle">142 răsp.</text>
  <!-- Thread 2 -->
  <rect x="30" y="207" width="740" height="52" rx="8" fill="#fff9e6" stroke="#FCD116" stroke-width="1"/>
  <circle cx="58" cy="233" r="16" fill="#CE1126"/>
  <text x="58" y="238" font-family="system-ui" font-size="12" font-weight="700" fill="#ffffff" text-anchor="middle">MD</text>
  <rect x="85" y="213" width="360" height="11" rx="5" fill="#002B7F" opacity="0.8"/>
  <rect x="85" y="232" width="220" height="9" rx="4" fill="#6b7280" opacity="0.5"/>
  <rect x="660" y="222" width="60" height="22" rx="11" fill="#CE1126"/>
  <text x="690" y="237" font-family="system-ui" font-size="10" font-weight="600" fill="#ffffff" text-anchor="middle">89 răsp.</text>
  <!-- Thread 3 -->
  <rect x="30" y="269" width="740" height="52" rx="8" fill="#f8faff" stroke="#e0e8ff" stroke-width="1"/>
  <circle cx="58" cy="295" r="16" fill="#002B7F" opacity="0.7"/>
  <text x="58" y="300" font-family="system-ui" font-size="12" font-weight="700" fill="#ffffff" text-anchor="middle">AC</text>
  <rect x="85" y="275" width="280" height="11" rx="5" fill="#002B7F" opacity="0.8"/>
  <rect x="85" y="294" width="180" height="9" rx="4" fill="#6b7280" opacity="0.5"/>
  <rect x="660" y="284" width="60" height="22" rx="11" fill="#002B7F" opacity="0.6"/>
  <text x="690" y="299" font-family="system-ui" font-size="10" font-weight="600" fill="#ffffff" text-anchor="middle">57 răsp.</text>
  <!-- Thread 4 -->
  <rect x="30" y="331" width="740" height="52" rx="8" fill="#f8faff" stroke="#e0e8ff" stroke-width="1"/>
  <circle cx="58" cy="357" r="16" fill="#FCD116"/>
  <text x="58" y="362" font-family="system-ui" font-size="12" font-weight="700" fill="#002B7F" text-anchor="middle">RO</text>
  <rect x="85" y="337" width="320" height="11" rx="5" fill="#002B7F" opacity="0.8"/>
  <rect x="85" y="356" width="240" height="9" rx="4" fill="#6b7280" opacity="0.5"/>
  <rect x="660" y="346" width="60" height="22" rx="11" fill="#FCD116"/>
  <text x="690" y="361" font-family="system-ui" font-size="10" font-weight="600" fill="#002B7F" text-anchor="middle">201 răsp.</text>
  <!-- Bottom badge -->
  <rect x="30" y="400" width="200" height="18" rx="9" fill="#002B7F" opacity="0.1"/>
  <text x="130" y="413" font-family="system-ui" font-size="10" fill="#002B7F" text-anchor="middle" font-weight="600">romaniaiptv.tv — Forum IPTV Romania</text>
</svg>
