<svg xmlns="http://www.w3.org/2000/svg" viewBox="0 0 800 450" width="800" height="450">
  <rect width="800" height="450" fill="#f0f4ff"/>
  <!-- Title bar -->
  <rect x="60" y="40" width="680" height="50" rx="8" fill="#002B7F"/>
  <text x="400" y="72" font-family="Arial" font-size="20" font-weight="bold" fill="#FCD116" text-anchor="middle">IPTV List Romania — M3U Playlist</text>
  <!-- List container -->
  <rect x="60" y="105" width="680" height="300" rx="10" fill="white" stroke="#002B7F" stroke-width="2"/>
  <!-- Header row -->
  <rect x="60" y="105" width="680" height="40" rx="10" fill="#002B7F"/>
  <rect x="60" y="125" width="680" height="20" fill="#002B7F"/>
  <text x="110" y="131" font-family="Arial" font-size="13" fill="#FCD116" font-weight="bold">#</text>
  <text x="160" y="131" font-family="Arial" font-size="13" fill="#FCD116" font-weight="bold">Canal</text>
  <text x="380" y="131" font-family="Arial" font-size="13" fill="#FCD116" font-weight="bold">Categorie</text>
  <text x="560" y="131" font-family="Arial" font-size="13" fill="#FCD116" font-weight="bold">Calitate</text>
  <!-- Row 1 -->
  <rect x="60" y="145" width="680" height="35" fill="#f8f9ff"/>
  <text x="110" y="168" font-family="Arial" font-size="13" fill="#333">1</text>
  <circle cx="145" cy="163" r="10" fill="#CE1126"/>
  <text x="163" y="168" font-family="Arial" font-size="13" fill="#002B7F" font-weight="bold">ProTV</text>
  <text x="380" y="168" font-family="Arial" font-size="12" fill="#555">Divertisment</text>
  <rect x="555" y="152" width="55" height="20" rx="4" fill="#28a745"/>
  <text x="582" y="166" font-family="Arial" font-size="11" fill="white" text-anchor="middle">HD</text>
  <!-- Row 2 -->
  <rect x="60" y="180" width="680" height="35" fill="white"/>
  <text x="110" y="203" font-family="Arial" font-size="13" fill="#333">2</text>
  <circle cx="145" cy="198" r="10" fill="#1a73e8"/>
  <text x="163" y="203" font-family="Arial" font-size="13" fill="#002B7F" font-weight="bold">Antena 1</text>
  <text x="380" y="203" font-family="Arial" font-size="12" fill="#555">Știri &amp; Divertisment</text>
  <rect x="555" y="187" width="55" height="20" rx="4" fill="#28a745"/>
  <text x="582" y="201" font-family="Arial" font-size="11" fill="white" text-anchor="middle">HD</text>
  <!-- Row 3 -->
  <rect x="60" y="215" width="680" height="35" fill="#f8f9ff"/>
  <text x="110" y="238" font-family="Arial" font-size="13" fill="#333">3</text>
  <circle cx="145" cy="233" r="10" fill="#002B7F"/>
  <text x="163" y="238" font-family="Arial" font-size="13" fill="#002B7F" font-weight="bold">TVR 1</text>
  <text x="380" y="238" font-family="Arial" font-size="12" fill="#555">Public</text>
  <rect x="555" y="222" width="55" height="20" rx="4" fill="#28a745"/>
  <text x="582" y="236" font-family="Arial" font-size="11" fill="white" text-anchor="middle">HD</text>
  <!-- Row 4 -->
  <rect x="60" y="250" width="680" height="35" fill="white"/>
  <text x="110" y="273" font-family="Arial" font-size="13" fill="#333">4</text>
  <circle cx="145" cy="268" r="10" fill="#6f42c1"/>
  <text x="163" y="273" font-family="Arial" font-size="13" fill="#002B7F" font-weight="bold">Digi 24</text>
  <text x="380" y="273" font-family="Arial" font-size="12" fill="#555">Știri</text>
  <rect x="555" y="257" width="70" height="20" rx="4" fill="#0d6efd"/>
  <text x="590" y="271" font-family="Arial" font-size="11" fill="white" text-anchor="middle">FHD</text>
  <!-- Row 5 -->
  <rect x="60" y="285" width="680" height="35" fill="#f8f9ff"/>
  <text x="110" y="308" font-family="Arial" font-size="13" fill="#333">5</text>
  <circle cx="145" cy="303" r="10" fill="#fd7e14"/>
  <text x="163" y="308" font-family="Arial" font-size="13" fill="#002B7F" font-weight="bold">Kanal D</text>
  <text x="380" y="308" font-family="Arial" font-size="12" fill="#555">Divertisment</text>
  <rect x="555" y="292" width="55" height="20" rx="4" fill="#28a745"/>
  <text x="582" y="306" font-family="Arial" font-size="11" fill="white" text-anchor="middle">HD</text>
  <!-- Row 6 -->
  <rect x="60" y="320" width="680" height="35" fill="white"/>
  <text x="110" y="343" font-family="Arial" font-size="13" fill="#333">6</text>
  <circle cx="145" cy="338" r="10" fill="#20c997"/>
  <text x="163" y="343" font-family="Arial" font-size="13" fill="#002B7F" font-weight="bold">Antena 3 CNN</text>
  <text x="380" y="343" font-family="Arial" font-size="12" fill="#555">Știri</text>
  <rect x="555" y="327" width="55" height="20" rx="4" fill="#28a745"/>
  <text x="582" y="341" font-family="Arial" font-size="11" fill="white" text-anchor="middle">HD</text>
  <!-- Footer info -->
  <text x="400" y="415" font-family="Arial" font-size="13" fill="#666" text-anchor="middle">500+ canale românești disponibile · romaniaiptv.tv</text>
</svg>