<svg xmlns="http://www.w3.org/2000/svg" width="800" height="450" viewBox="0 0 800 450">
  <rect width="800" height="450" fill="#001a5c"/>
  <!-- Header -->
  <rect x="0" y="0" width="800" height="70" fill="#002B7F"/>
  <text x="50" y="45" font-family="Arial, sans-serif" font-size="22" font-weight="bold" fill="#FCD116">Romania IPTV</text>
  <text x="400" y="45" font-family="Arial, sans-serif" font-size="16" fill="#ffffff" text-anchor="middle">Playlist M3U – Canale Romanești</text>
  <rect x="650" y="20" width="120" height="32" rx="16" fill="#CE1126"/>
  <text x="710" y="41" font-family="Arial, sans-serif" font-size="13" fill="#fff" text-anchor="middle">ABONARE</text>
  <!-- Playlist rows -->
  <rect x="40" y="90" width="720" height="40" rx="5" fill="#0d2266"/>
  <rect x="40" y="90" width="6" height="40" rx="3" fill="#FCD116"/>
  <circle cx="75" cy="110" r="14" fill="#CE1126"/>
  <text x="75" y="115" font-family="Arial, sans-serif" font-size="11" fill="#fff" text-anchor="middle">PRO</text>
  <text x="110" y="115" font-family="Arial, sans-serif" font-size="14" font-weight="bold" fill="#fff">PRO TV HD</text>
  <rect x="500" y="99" width="60" height="22" rx="11" fill="#00aa44"/>
  <text x="530" y="114" font-family="Arial, sans-serif" font-size="11" fill="#fff" text-anchor="middle">LIVE</text>
  <text x="700" y="115" font-family="Arial, sans-serif" font-size="12" fill="#FCD116">HD</text>

  <rect x="40" y="138" width="720" height="40" rx="5" fill="#0a1a3c"/>
  <rect x="40" y="138" width="6" height="40" rx="3" fill="#CE1126"/>
  <circle cx="75" cy="158" r="14" fill="#002B7F" stroke="#FCD116" stroke-width="2"/>
  <text x="75" y="163" font-family="Arial, sans-serif" font-size="10" fill="#FCD116" text-anchor="middle">A1</text>
  <text x="110" y="163" font-family="Arial, sans-serif" font-size="14" font-weight="bold" fill="#fff">ANTENA 1 HD</text>
  <rect x="500" y="147" width="60" height="22" rx="11" fill="#00aa44"/>
  <text x="530" y="162" font-family="Arial, sans-serif" font-size="11" fill="#fff" text-anchor="middle">LIVE</text>
  <text x="700" y="163" font-family="Arial, sans-serif" font-size="12" fill="#FCD116">HD</text>

  <rect x="40" y="186" width="720" height="40" rx="5" fill="#0d2266"/>
  <rect x="40" y="186" width="6" height="40" rx="3" fill="#FCD116"/>
  <circle cx="75" cy="206" r="14" fill="#CE1126"/>
  <text x="75" y="211" font-family="Arial, sans-serif" font-size="10" fill="#fff" text-anchor="middle">D24</text>
  <text x="110" y="211" font-family="Arial, sans-serif" font-size="14" font-weight="bold" fill="#fff">DIGI24</text>
  <rect x="500" y="195" width="60" height="22" rx="11" fill="#00aa44"/>
  <text x="530" y="210" font-family="Arial, sans-serif" font-size="11" fill="#fff" text-anchor="middle">LIVE</text>
  <text x="700" y="211" font-family="Arial, sans-serif" font-size="12" fill="#FCD116">HD</text>

  <rect x="40" y="234" width="720" height="40" rx="5" fill="#0a1a3c"/>
  <rect x="40" y="234" width="6" height="40" rx="3" fill="#CE1126"/>
  <circle cx="75" cy="254" r="14" fill="#0d2266" stroke="#ffffff" stroke-width="1"/>
  <text x="75" y="259" font-family="Arial, sans-serif" font-size="10" fill="#fff" text-anchor="middle">KD</text>
  <text x="110" y="259" font-family="Arial, sans-serif" font-size="14" font-weight="bold" fill="#fff">KANAL D HD</text>
  <rect x="500" y="243" width="60" height="22" rx="11" fill="#00aa44"/>
  <text x="530" y="258" font-family="Arial, sans-serif" font-size="11" fill="#fff" text-anchor="middle">LIVE</text>
  <text x="700" y="259" font-family="Arial, sans-serif" font-size="12" fill="#FCD116">HD</text>

  <rect x="40" y="282" width="720" height="40" rx="5" fill="#0d2266"/>
  <rect x="40" y="282" width="6" height="40" rx="3" fill="#FCD116"/>
  <circle cx="75" cy="302" r="14" fill="#CE1126"/>
  <text x="75" y="307" font-family="Arial, sans-serif" font-size="10" fill="#fff" text-anchor="middle">TVR</text>
  <text x="110" y="307" font-family="Arial, sans-serif" font-size="14" font-weight="bold" fill="#fff">TVR 1 HD</text>
  <rect x="500" y="291" width="60" height="22" rx="11" fill="#00aa44"/>
  <text x="530" y="306" font-family="Arial, sans-serif" font-size="11" fill="#fff" text-anchor="middle">LIVE</text>
  <text x="700" y="307" font-family="Arial, sans-serif" font-size="12" fill="#FCD116">HD</text>

  <!-- Footer -->
  <rect x="40" y="350" width="720" height="50" rx="8" fill="#002B7F" stroke="#FCD116" stroke-width="1"/>
  <text x="400" y="372" font-family="Arial, sans-serif" font-size="14" fill="#fff" text-anchor="middle">+ 250 canale romanesti disponibile in playlist IPTV</text>
  <text x="400" y="392" font-family="Arial, sans-serif" font-size="13" fill="#FCD116" text-anchor="middle">romaniaiptv.tv</text>
</svg>
