<svg xmlns="http://www.w3.org/2000/svg" width="800" height="450" viewBox="0 0 800 450">
  <defs>
    <linearGradient id="bg1" x1="0%" y1="0%" x2="100%" y2="100%">
      <stop offset="0%" style="stop-color:#002B7F;stop-opacity:1" />
      <stop offset="100%" style="stop-color:#0044CC;stop-opacity:1" />
    </linearGradient>
  </defs>
  <rect width="800" height="450" fill="url(#bg1)" rx="12"/>
  <rect x="60" y="60" width="680" height="330" rx="10" fill="#001a4d" opacity="0.7"/>
  <!-- M3U file icon -->
  <rect x="150" y="100" width="120" height="150" rx="8" fill="#FFFFFF" opacity="0.15"/>
  <rect x="150" y="100" width="120" height="40" rx="8" fill="#FCD116" opacity="0.9"/>
  <text x="210" y="126" font-family="system-ui,Arial,sans-serif" font-size="16" font-weight="bold" fill="#002B7F" text-anchor="middle">M3U</text>
  <rect x="165" y="155" width="90" height="6" rx="3" fill="#FFFFFF" opacity="0.5"/>
  <rect x="165" y="170" width="70" height="6" rx="3" fill="#FFFFFF" opacity="0.4"/>
  <rect x="165" y="185" width="80" height="6" rx="3" fill="#FFFFFF" opacity="0.5"/>
  <rect x="165" y="200" width="60" height="6" rx="3" fill="#FCD116" opacity="0.6"/>
  <rect x="165" y="215" width="75" height="6" rx="3" fill="#FFFFFF" opacity="0.4"/>
  <!-- Arrow -->
  <polygon points="300,175 340,175 340,165 370,180 340,195 340,185 300,185" fill="#FCD116" opacity="0.9"/>
  <!-- TV screen -->
  <rect x="390" y="100" width="220" height="140" rx="10" fill="#0d1b4a"/>
  <rect x="400" y="110" width="200" height="120" rx="6" fill="#CE1126" opacity="0.2"/>
  <circle cx="500" cy="170" r="30" fill="#FCD116" opacity="0.8"/>
  <polygon points="490,155 490,185 520,170" fill="#002B7F"/>
  <rect x="480" y="250" width="40" height="20" rx="4" fill="#FFFFFF" opacity="0.3"/>
  <rect x="460" y="270" width="80" height="8" rx="4" fill="#FFFFFF" opacity="0.2"/>
  <!-- Labels -->
  <text x="400" y="330" font-family="system-ui,Arial,sans-serif" font-size="30" font-weight="bold" fill="#FFFFFF" text-anchor="middle">IPTV M3U Romania</text>
  <text x="400" y="365" font-family="system-ui,Arial,sans-serif" font-size="16" fill="#FCD116" text-anchor="middle">Liste Complete Canale Românești 2025</text>
  <rect x="300" y="385" width="200" height="36" rx="8" fill="#FCD116"/>
  <text x="400" y="409" font-family="system-ui,Arial,sans-serif" font-size="14" font-weight="bold" fill="#002B7F" text-anchor="middle">romaniaiptv.tv</text>
</svg>
