<svg xmlns="http://www.w3.org/2000/svg" viewBox="0 0 800 450" width="800" height="450">
  <rect width="800" height="450" fill="#FFFFFF"/>
  <rect width="800" height="6" fill="#002B7F"/>
  <rect width="800" height="6" y="444" fill="#CE1126"/>
  <!-- Phone mockup -->
  <rect x="280" y="30" width="240" height="390" rx="20" fill="#002B7F"/>
  <rect x="295" y="50" width="210" height="350" rx="5" fill="#0a1628"/>
  <!-- App header -->
  <rect x="295" y="50" width="210" height="40" fill="#1565C0"/>
  <text x="400" y="76" font-family="Arial, sans-serif" font-size="14" font-weight="bold" fill="#FCD116" text-anchor="middle">IPTV Extreme</text>
  <!-- Channel list items -->
  <rect x="300" y="100" width="200" height="30" rx="3" fill="#1a2a4a"/>
  <text x="360" y="120" font-family="Arial, sans-serif" font-size="11" fill="#FFFFFF">Pro TV</text>
  <rect x="300" y="140" width="200" height="30" rx="3" fill="#1a2a4a"/>
  <text x="360" y="160" font-family="Arial, sans-serif" font-size="11" fill="#FFFFFF">Antena 1</text>
  <rect x="300" y="180" width="200" height="30" rx="3" fill="#1a2a4a"/>
  <text x="360" y="200" font-family="Arial, sans-serif" font-size="11" fill="#FFFFFF">Digi24</text>
  <rect x="300" y="220" width="200" height="30" rx="3" fill="#FCD116"/>
  <text x="360" y="240" font-family="Arial, sans-serif" font-size="11" fill="#002B7F" font-weight="bold">TVR 1 ▶ LIVE</text>
  <rect x="300" y="260" width="200" height="30" rx="3" fill="#1a2a4a"/>
  <text x="360" y="280" font-family="Arial, sans-serif" font-size="11" fill="#FFFFFF">Kanal D</text>
  <rect x="300" y="300" width="200" height="30" rx="3" fill="#1a2a4a"/>
  <text x="360" y="320" font-family="Arial, sans-serif" font-size="11" fill="#FFFFFF">Romania TV</text>
  <!-- Bottom nav -->
  <rect x="295" y="365" width="210" height="35" fill="#002B7F"/>
  <text x="360" y="387" font-family="Arial, sans-serif" font-size="11" fill="#FCD116">☰ Canale  ⭐ Favorite</text>
  <!-- Title -->
  <text x="400" y="435" font-family="Arial, sans-serif" font-size="20" font-weight="bold" fill="#002B7F" text-anchor="middle">Canale Romanesti - IPTV Extreme</text>
</svg>