<svg width="800" height="450" viewBox="0 0 800 450" xmlns="http://www.w3.org/2000/svg">
  <rect width="800" height="450" fill="#f8f9ff"/>
  <rect width="800" height="8" fill="#002B7F"/>
  <rect y="8" width="800" height="8" fill="#FCD116"/>
  <rect y="16" width="800" height="8" fill="#CE1126"/>
  <!-- Title -->
  <text x="400" y="75" fill="#002B7F" font-family="Arial" font-size="24" font-weight="bold" text-anchor="middle">M3U IPTV Romania pe Orice Dispozitiv</text>
  <!-- Smart TV -->
  <rect x="60" y="100" width="170" height="140" rx="10" fill="#002B7F"/>
  <rect x="75" y="115" width="140" height="90" rx="4" fill="#111"/>
  <text x="145" y="155" fill="#FCD116" font-family="Arial" font-size="11" text-anchor="middle" font-weight="bold">Smart TV</text>
  <text x="145" y="172" fill="#fff" font-family="Arial" font-size="10" text-anchor="middle">IPTV Smarters</text>
  <rect x="105" y="205" width="80" height="6" rx="3" fill="#FCD116"/>
  <rect x="130" y="215" width="30" height="20" rx="4" fill="#FCD116"/>
  <text x="145" y="260" fill="#002B7F" font-family="Arial" font-size="13" font-weight="bold" text-anchor="middle">Smart TV</text>
  <!-- Android/Phone -->
  <rect x="310" y="100" width="90" height="160" rx="12" fill="#002B7F"/>
  <rect x="320" y="115" width="70" height="120" rx="4" fill="#111"/>
  <text x="355" y="165" fill="#FCD116" font-family="Arial" font-size="9" text-anchor="middle" font-weight="bold">Romania</text>
  <text x="355" y="180" fill="#fff" font-family="Arial" font-size="8" text-anchor="middle">IPTV M3U</text>
  <circle cx="355" cy="242" r="6" fill="#FCD116"/>
  <text x="355" y="285" fill="#002B7F" font-family="Arial" font-size="13" font-weight="bold" text-anchor="middle">Android</text>
  <!-- Windows/Laptop -->
  <rect x="470" y="110" width="160" height="110" rx="8" fill="#002B7F"/>
  <rect x="483" y="122" width="134" height="86" rx="3" fill="#111"/>
  <text x="550" y="158" fill="#FCD116" font-family="Arial" font-size="10" text-anchor="middle" font-weight="bold">VLC Player</text>
  <text x="550" y="174" fill="#fff" font-family="Arial" font-size="9" text-anchor="middle">M3U Playlist</text>
  <rect x="450" y="220" width="200" height="12" rx="3" fill="#002B7F"/>
  <rect x="510" y="232" width="80" height="20" rx="3" fill="#FCD116"/>
  <text x="550" y="268" fill="#002B7F" font-family="Arial" font-size="13" font-weight="bold" text-anchor="middle">PC / Mac</text>
  <!-- MAG Box -->
  <rect x="60" y="310" width="140" height="70" rx="8" fill="#333"/>
  <rect x="75" y="320" width="110" height="40" rx="3" fill="#111"/>
  <text x="130" y="344" fill="#FCD116" font-family="Arial" font-size="10" text-anchor="middle">MAG Box</text>
  <text x="130" y="390" fill="#002B7F" font-family="Arial" font-size="12" font-weight="bold" text-anchor="middle">MAG / Formuler</text>
  <!-- Fire TV -->
  <ellipse cx="450" cy="340" rx="55" ry="18" fill="#222"/>
  <rect x="438" y="325" width="24" height="12" rx="3" fill="#FF9900"/>
  <text x="450" y="335" fill="#fff" font-family="Arial" font-size="8" text-anchor="middle">fire tv</text>
  <text x="450" y="390" fill="#002B7F" font-family="Arial" font-size="12" font-weight="bold" text-anchor="middle">Amazon Fire TV</text>
  <!-- iOS -->
  <rect x="610" y="300" width="80" height="140" rx="12" fill="#888"/>
  <rect x="620" y="315" width="60" height="100" rx="4" fill="#111"/>
  <text x="650" y="360" fill="#FCD116" font-family="Arial" font-size="8" text-anchor="middle">IPTV App</text>
  <circle cx="650" cy="398" r="8" fill="#666"/>
  <text x="650" y="432" fill="#002B7F" font-family="Arial" font-size="12" font-weight="bold" text-anchor="middle">iPhone / iPad</text>
  <!-- Bottom branding -->
  <text x="400" y="445" fill="#002B7F" font-family="Arial" font-size="11" text-anchor="middle" font-weight="bold">romaniaiptv.tv – M3U IPTV Romania compatibil cu toate dispozitivele</text>
</svg>
